<?xml version="1.0" encoding="UTF-8"?>
<svg width="35px" height="35px" viewBox="0 0 35 35" version="1.1" xmlns="http://www.w3.org/2000/svg" xmlns:xlink="http://www.w3.org/1999/xlink">
    <!-- Generator: Sketch 57.1 (83088) - https://sketch.com -->
    <title>delete</title>
    <desc>Created with Sketch.</desc>
    <g id="Page-1" stroke="none" stroke-width="1" fill="none" fill-rule="evenodd">
        <g id="Artboard" transform="translate(-859.000000, -811.000000)" fill="#FFFFFF" fill-rule="nonzero">
            <g id="Group-13" transform="translate(124.000000, 116.000000)">
                <g id="Group-6" transform="translate(23.000000, 0.000000)">
                    <g id="Group-5" transform="translate(640.267928, 661.463004)">
                        <g id="delete" transform="translate(72.416510, 34.441999)">
                            <path d="M32.3625787,6.5974432 L22.2138569,16.7472227 L32.3625787,26.8965214 C33.8721509,28.4066705 33.8721509,30.8529103 32.3625787,32.3630595 C31.6083214,33.1173167 30.6194405,33.4947338 29.6310405,33.4947338 C28.6410057,33.4947338 27.6520287,33.1178937 26.8983483,32.3630595 L16.747415,22.2126069 L6.59725088,32.3629633 C5.84308979,33.1172206 4.85411275,33.4947338 3.86484725,33.4947338 C2.87587021,33.4947338 1.88756628,33.1177975 1.13273208,32.3629633 C-0.376840155,30.8534872 -0.376840155,28.4071513 1.13273208,26.8964252 L11.2811654,16.7471265 L1.13215514,6.5974432 C-0.377417099,5.08787096 -0.377417099,2.64105428 1.13215514,1.13148204 C2.6414389,-0.376936313 5.08681323,-0.376936313 6.59667394,1.13148204 L16.7473188,11.2812615 L26.8971945,1.13148204 C28.4073436,-0.376936313 30.8530064,-0.376936313 32.3620017,1.13148204 C33.8721509,2.64105428 33.8721509,5.08787096 32.3625787,6.5974432 Z" id="Path"></path>
                        </g>
                    </g>
                </g>
            </g>
        </g>
    </g>
</svg>