<?xml version="1.0" encoding="UTF-8"?>
<svg width="22px" height="22px" viewBox="0 0 22 22" version="1.1" xmlns="http://www.w3.org/2000/svg" xmlns:xlink="http://www.w3.org/1999/xlink">
    <!-- Generator: Sketch 57.1 (83088) - https://sketch.com -->
    <title>Group 3</title>
    <desc>Created with Sketch.</desc>
    <g id="Page-1" stroke="none" stroke-width="1" fill="none" fill-rule="evenodd" opacity="0.9">
        <g id="Artboard" transform="translate(-1081.000000, -263.000000)">
            <g id="Group-13" transform="translate(124.000000, 116.000000)">
                <g id="Group-6" transform="translate(23.000000, 0.000000)">
                    <g id="Group" transform="translate(834.636945, 73.471562)">
                        <g id="Group-3" transform="translate(99.186609, 73.471562)">
                            <circle id="Oval" fill="#FFFFFF" cx="11.0207343" cy="11.0207343" r="10.7146028"></circle>
                            <g id="question-mark-on-a-circular-black-background" transform="translate(1.836789, 1.836789)" fill="#47789E" fill-rule="nonzero">
                                <path d="M17.1182464,4.56908599 C16.2978418,3.16358672 15.1850154,2.05076033 13.7794743,1.23039762 C12.3736822,0.410076754 10.8390637,0 9.17444751,0 C7.50999864,0 5.97491997,0.410076754 4.56937887,1.23039762 C3.16375408,2.05063481 2.05092769,3.1634612 1.23052314,4.56908599 C0.410076754,5.97479445 0,7.50987312 0,9.17419647 C0,10.8386035 0.410202275,12.3734311 1.23039762,13.7792233 C2.05076033,15.1847225 3.16358672,16.2975489 4.56921151,17.1179953 C5.97491997,17.9382743 7.50987312,18.3483929 9.17428015,18.3483929 C10.8386872,18.3483929 12.3738077,17.9382743 13.7794325,17.1179953 C15.1849736,16.2978418 16.2977581,15.1847225 17.118079,13.7792233 C17.9382743,12.3735566 18.3483093,10.8385198 18.3483093,9.17419647 C18.3483093,7.50970576 17.9382743,5.97458525 17.1182464,4.56908599 Z M10.7035849,14.9080745 C10.7035849,15.0194534 10.6675185,15.1111255 10.5959298,15.1826724 C10.5246339,15.2542611 10.4329618,15.2900764 10.3215829,15.2900764 L8.02777232,15.2900764 C7.91630977,15.2900764 7.82467952,15.2542611 7.75300709,15.1826724 C7.68129282,15.1110836 7.64547752,15.0194534 7.64547752,14.9080745 L7.64547752,12.6142639 C7.64547752,12.502885 7.68125098,12.4112129 7.75300709,12.339666 C7.82467952,12.2682028 7.91630977,12.2324293 8.02777232,12.2324293 L10.3215829,12.2324293 C10.4329618,12.2324293 10.5246339,12.2682028 10.5959298,12.339666 C10.6675185,12.4112547 10.7035849,12.502885 10.7035849,12.6142639 L10.7035849,14.9080745 Z M13.6122386,7.84815193 C13.5125751,8.14283314 13.4011962,8.38387509 13.2777673,8.57094306 C13.1543803,8.75809471 12.9770611,8.94926303 12.746019,9.14428065 C12.5154789,9.33938196 12.3321766,9.47883567 12.1964467,9.56259995 C12.0613025,9.64607134 11.865992,9.75979327 11.6114356,9.90297077 C11.348553,10.0541398 11.1317366,10.2513331 10.9606098,10.4943415 C10.7893575,10.7371826 10.7037522,10.9342086 10.7037522,11.0853776 C10.7037522,11.1970912 10.6676859,11.2886796 10.5960553,11.3603102 C10.5246339,11.4318989 10.4330037,11.4676724 10.3215829,11.4676724 L8.02789784,11.4676724 C7.91643529,11.4676724 7.82480504,11.4318989 7.75313261,11.3603102 C7.6813765,11.2886796 7.64568673,11.1970912 7.64568673,11.0853776 L7.64568673,10.6553012 C7.64568673,10.1217537 7.85459533,9.62180397 8.27274726,9.15607962 C8.69089919,8.69014607 9.15080774,8.34571674 9.65259843,8.12270796 C10.0346003,7.94756447 10.3054744,7.76832064 10.4647186,7.58518566 C10.6242138,7.40205068 10.7038359,7.15891671 10.7038359,6.8564532 C10.7038359,6.59357061 10.5543824,6.35867918 10.2556845,6.15148603 C9.95698659,5.94450208 9.61678313,5.84098918 9.23440466,5.84098918 C8.82018571,5.84098918 8.4778484,5.93659426 8.20701615,6.12780442 C7.94413357,6.31880538 7.60179625,6.68520086 7.1796695,7.22665615 C7.10799707,7.32230307 7.00841716,7.37021021 6.88097161,7.37021021 C6.78540837,7.37021021 6.70971928,7.34636124 6.65402984,7.29870514 L5.07732008,6.10408097 C4.8941851,5.96069427 4.86234463,5.79354229 4.98167316,5.60237397 C6.00115384,3.90608463 7.47836738,3.05793997 9.41348113,3.05793997 C10.106482,3.05793997 10.7834998,3.22124265 11.444451,3.54780617 C12.1053603,3.87420233 12.656941,4.33616105 13.0990674,4.93351498 C13.5406499,5.5306597 13.7620269,6.17981191 13.7620269,6.88063689 C13.7614411,7.23100754 13.7114838,7.55338703 13.6122386,7.84815193 Z" id="Shape"></path>
                            </g>
                        </g>
                    </g>
                </g>
            </g>
        </g>
    </g>
</svg>