<?xml version="1.0" encoding="UTF-8"?>
<svg width="65px" height="35px" viewBox="0 0 65 35" version="1.1" xmlns="http://www.w3.org/2000/svg" xmlns:xlink="http://www.w3.org/1999/xlink">
    <!-- Generator: Sketch 57.1 (83088) - https://sketch.com -->
    <title>Group 5</title>
    <desc>Created with Sketch.</desc>
    <g id="Page-1" stroke="none" stroke-width="1" fill="none" fill-rule="evenodd">
        <g id="Artboard" transform="translate(-147.000000, -913.000000)">
            <g id="Group-13" transform="translate(124.000000, 116.000000)">
                <g id="Group-6" transform="translate(23.000000, 0.000000)">
                    <g id="Group-5" transform="translate(0.000000, 796.532703)">
                        <path d="M34.8004957,17.290618 L63.4955638,17.290618" id="Line-4" stroke="#E6A68D" stroke-width="1.47154196" stroke-linecap="square"></path>
                        <g id="Group-3">
                            <circle id="Oval" fill="#CD4E1B" cx="17.6585035" cy="17.6585035" r="17.1679895"></circle>
                            <g id="question-mark-on-a-circular-black-background" transform="translate(2.943084, 2.943084)" fill="#FFFFFF" fill-rule="nonzero">
                                <path d="M27.4285364,7.32103855 C26.1140036,5.06900951 24.3309239,3.28592972 22.0788278,1.97146398 C19.8263295,0.657065271 17.367413,0 14.7002013,0 C12.0332578,0 9.57360391,0.657065271 7.32150783,1.97146398 C5.06927767,3.2857286 3.28619788,5.06880839 1.9716651,7.32103855 C0.657065271,9.57340279 0,12.0330567 0,14.6997991 C0,17.3666756 0.657266393,19.8259272 1.97146398,22.0784255 C3.28592972,24.3304546 5.06900951,26.1135344 7.32123967,27.4281342 C9.57360391,28.7424659 12.0330567,29.3995982 14.6999332,29.3995982 C17.3668097,29.3995982 19.8265306,28.7424659 22.0787607,27.4281342 C24.3308568,26.1140036 26.1138696,24.3304546 27.4282683,22.0784255 C28.7424659,19.8261283 29.3994641,17.3665415 29.3994641,14.6997991 C29.3994641,12.0327885 28.7424659,9.57306759 27.4285364,7.32103855 Z M17.1503354,23.8871819 C17.1503354,24.0656441 17.0925464,24.2125301 16.9778399,24.3271696 C16.8636026,24.4418761 16.7167166,24.4992629 16.5382544,24.4992629 L12.8628857,24.4992629 C12.6842894,24.4992629 12.5374704,24.4418761 12.4226298,24.3271696 C12.3077222,24.2124631 12.2503354,24.0656441 12.2503354,23.8871819 L12.2503354,20.2118131 C12.2503354,20.0333509 12.3076551,19.8864649 12.4226298,19.7718254 C12.5374704,19.65732 12.6842894,19.6000003 12.8628857,19.6000003 L16.5382544,19.6000003 C16.7167166,19.6000003 16.8636026,19.65732 16.9778399,19.7718254 C17.0925464,19.886532 17.1503354,20.0333509 17.1503354,20.2118131 L17.1503354,23.8871819 Z M21.8108664,12.5750802 C21.6511756,13.0472474 21.4727134,13.4334685 21.2749435,13.7332072 C21.0772407,14.03308 20.7931225,14.3393886 20.4229241,14.651865 C20.0535302,14.9644755 19.7598252,15.187922 19.5423453,15.3221373 C19.3258041,15.4558834 19.0128584,15.6380998 18.6049832,15.8675129 C18.1837668,16.1097307 17.8363623,16.4256932 17.5621661,16.8150652 C17.2877687,17.2041691 17.1506036,17.5198634 17.1506036,17.7620812 C17.1506036,17.9410797 17.0928146,18.0878317 16.978041,18.2026053 C16.8636026,18.3173118 16.7167837,18.3746315 16.5382544,18.3746315 L12.8630868,18.3746315 C12.6844905,18.3746315 12.5376715,18.3173118 12.4228309,18.2026053 C12.3078562,18.0878317 12.2506706,17.9410797 12.2506706,17.7620812 L12.2506706,17.0729706 C12.2506706,16.2180684 12.5854045,15.4169998 13.2554086,14.6707705 C13.9254127,13.924206 14.6623234,13.3723275 15.4663417,13.0150009 C16.0784227,12.7343688 16.5124438,12.4471667 16.7676005,12.1537298 C17.0231594,11.860293 17.1507377,11.4707198 17.1507377,10.9860831 C17.1507377,10.5648668 16.9112685,10.1885006 16.4326654,9.85651539 C15.9540623,9.52486537 15.4089549,9.35900684 14.7962706,9.35900684 C14.1325683,9.35900684 13.5840418,9.51219469 13.1500877,9.81857039 C12.7288714,10.1246109 12.180345,10.7116857 11.503972,11.5792586 C11.3891314,11.7325135 11.2295747,11.809275 11.0253689,11.809275 C10.8722481,11.809275 10.7509716,11.7710619 10.6617405,11.6947026 L8.13538115,9.78055835 C7.84194429,9.55081009 7.79092636,9.28298275 7.98212626,8.97667409 C9.61563839,6.25871263 11.9825751,4.89973191 15.0832045,4.89973191 C16.1935985,4.89973191 17.2783831,5.16139151 18.337424,5.68464367 C19.3963979,6.20762767 20.2801946,6.94782333 20.988613,7.90496249 C21.6961598,8.86176644 22.0508718,9.9019019 22.0508718,11.0248326 C22.0499333,11.5862308 21.9698867,12.1027789 21.8108664,12.5750802 Z" id="Shape"></path>
                            </g>
                        </g>
                        <polygon id="Triangle" fill="#E6A68D" transform="translate(61.023373, 17.245736) rotate(-270.000000) translate(-61.023373, -17.245736) " points="61.0233733 13.2659507 68.0985471 21.2255212 53.9481996 21.2255212"></polygon>
                    </g>
                </g>
            </g>
        </g>
    </g>
</svg>