<?xml version="1.0" encoding="UTF-8"?>
<svg width="37px" height="29px" viewBox="0 0 37 29" version="1.1" xmlns="http://www.w3.org/2000/svg" xmlns:xlink="http://www.w3.org/1999/xlink">
    <!-- Generator: Sketch 57.1 (83088) - https://sketch.com -->
    <title>correct-symbol</title>
    <desc>Created with Sketch.</desc>
    <g id="Page-1" stroke="none" stroke-width="1" fill="none" fill-rule="evenodd">
        <g id="Artboard" transform="translate(-1052.000000, -815.000000)" fill="#FFFFFF" fill-rule="nonzero">
            <g id="Group-13" transform="translate(124.000000, 116.000000)">
                <g id="Group-6" transform="translate(23.000000, 0.000000)">
                    <g id="Group-2" transform="translate(834.636945, 662.713490)">
                        <g id="correct-symbol" transform="translate(70.532700, 36.735781)">
                            <path d="M36.0341525,3.93885522 L32.8143401,0.719042793 C32.3728473,0.27721832 31.8359078,0.0562231592 31.2047655,0.0562231592 C30.5730428,0.0562231592 30.0361033,0.27721832 29.5946106,0.719042793 L14.0632531,16.2738681 L7.10261034,9.2895088 C6.66062002,8.84751848 6.12401225,8.62677209 5.49286998,8.62677209 C4.86131307,8.62677209 4.32470531,8.84751848 3.88271499,9.2895088 L0.662902559,12.5094042 C0.220912236,12.9513115 0,13.4880852 0,14.1195591 C0,14.7505356 0.220912236,15.2878067 0.662902559,15.7296312 L9.23328564,24.2998484 L12.4533468,27.5196609 C12.8950884,27.961817 13.431862,28.1825634 14.0632531,28.1825634 C14.6943953,28.1825634 15.2311689,27.9612366 15.6731593,27.5196609 L18.8931375,24.2998484 L36.0341525,7.15891642 C36.4757282,6.7169261 36.6970554,6.18023541 36.6970554,5.54876144 C36.6970554,4.91761916 36.4757282,4.38084554 36.0341525,3.93885522 Z" id="Path"></path>
                        </g>
                    </g>
                </g>
            </g>
        </g>
    </g>
</svg>